<svg xmlns="http://www.w3.org/2000/svg" viewBox="-5 -5 34 34" fill="none" stroke="#d8f000" stroke-width="2" stroke-linecap="round" stroke-linejoin="round" > <path stroke="none" d="M0 0h24v24H0z" fill="none" /> <path d="M2 12h1" /> <path d="M6 8h-2a1 1 0 0 0 -1 1v6a1 1 0 0 0 1 1h2" /> <path d="M6 7v10a1 1 0 0 0 1 1h1a1 1 0 0 0 1 -1v-10a1 1 0 0 0 -1 -1h-1a1 1 0 0 0 -1 1" /> <path d="M9 12h6" /> <path d="M15 7v10a1 1 0 0 0 1 1h1a1 1 0 0 0 1 -1v-10a1 1 0 0 0 -1 -1h-1a1 1 0 0 0 -1 1" /> <path d="M18 8h2a1 1 0 0 1 1 1v6a1 1 0 0 1 -1 1h-2" /> <path d="M22 12h-1" /> </svg>
